#!OML:ASF X:\für Bonn\!DataBase\2005_08_11_Bastian_Final\c3d\Bastian.ASF
:FULLY-SPECIFIED
:DEGREES
175
root -1.66049 16.8633 -3.48101 531.43 43.9672 -175.442
lowerback 22.4076 -4.58163 -4.00734
upperback 18.7262 -3.21102 0.00191024
thorax 8.80834 -0.704411 2.88767
lowerneck -16.914 -13.2958 -23.2431
upperneck -1.8658 -15.7029 38.2891
head 8.55838 -5.80699 15.7272
rclavicle -5.48646e-014 -7.95139e-016
rhumerus -29.3581 12.5155 -87.6673
rradius 28.5887
rwrist 2.86261
rhand -9.19527 4.3403
rfingers 7.12502
rthumb 16.7585 -24.9564
lclavicle -5.48646e-014 -7.95139e-016
lhumerus 10.2334 -22.8992 -276.196
lradius 36.6522
lwrist -350.591
lhand -15.3971 -9.36569
lfingers 7.12502
lthumb 10.7817 20.3376
rfemur -32.7758 2.28476 18.3365
rtibia 38.5559
rfoot 14.6119 -4.14626
rtoes -26.6841
lfemur 13.9014 4.56132 -14.9754
ltibia 33.9008
lfoot -21.8692 -16.1152
ltoes -1.43735
176
root -1.58429 16.8528 -3.54567 531.522 43.7952 -175.525
lowerback 22.2284 -4.66518 -3.85375
upperback 18.6902 -3.31337 0.0993162
thorax 8.85192 -0.753763 2.91617
lowerneck -16.9787 -13.2741 -23.1318
upperneck -1.83514 -15.6695 38.1588
head 8.53174 -5.78657 15.6442
rclavicle -2.62396e-014 -1.03368e-014
rhumerus -29.2235 12.2676 -87.4275
rradius 28.5849
rwrist 3.01894
rhand -9.21937 4.29369
rfingers 7.12502
rthumb 16.7353 -25.005
lclavicle -2.62396e-014 -1.03368e-014
lhumerus 9.98988 -22.9088 -275.866
lradius 36.7435
lwrist -350.931
lhand -15.3373 -9.39076
lfingers 7.12502
lthumb 10.8394 20.3095
rfemur -32.6616 2.38083 18.1616
rtibia 38.2269
rfoot 14.6461 -4.19632
rtoes -26.9757
lfemur 14.1989 4.42048 -14.9866
ltibia 33.6738
lfoot -21.8875 -16.2355
ltoes -1.29261
177
root -1.50563 16.8425 -3.61077 531.639 43.6244 -175.576
lowerback 22.0335 -4.7473 -3.65945
upperback 18.6735 -3.40209 0.189576
thorax 8.92148 -0.789516 2.91167
lowerneck -17.0632 -13.2559 -22.9669
upperneck -1.85042 -15.6307 38.0119
head 8.48476 -5.76184 15.5386
rclavicle 3.77691e-014 -5.725e-014
rhumerus -29.0832 12.2509 -87.2687
rradius 28.5929
rwrist 2.90511
rhand -9.35419 4.22356
rfingers 7.12502
rthumb 16.6055 -25.086
lclavicle 3.77691e-014 -5.725e-014
lhumerus 9.80359 -23.0422 -275.614
lradius 36.8453
lwrist -351.198
lhand -15.3518 -9.37781
lfingers 7.12502
lthumb 10.8254 20.3232
rfemur -32.5755 2.43561 18.031
rtibia 37.9579
rfoot 14.6729 -4.14353
rtoes -27.235
lfemur 14.4982 4.30708 -14.9541
ltibia 33.4546
lfoot -21.9549 -16.3483
ltoes -1.55535
178
root -1.42475 16.8317 -3.6753 531.747 43.457 -175.658
lowerback 21.8495 -4.81612 -3.51719
upperback 18.6321 -3.48942 0.288037
thorax 8.96144 -0.832782 2.94465
lowerneck -17.125 -13.2341 -22.8451
upperneck -1.83553 -15.5944 37.87
head 8.44907 -5.74115 15.4478
rclavicle 3.77691e-014 -2.22639e-014
rhumerus -29.0011 12.2952 -87.1288
rradius 28.6309
rwrist 2.7819
rhand -9.46268 4.1131
rfingers 7.12502
rthumb 16.501 -25.2052
lclavicle 3.77691e-014 -2.22639e-014
lhumerus 9.56795 -23.0811 -275.301
lradius 36.9024
lwrist -351.51
lhand -15.3929 -9.44858
lfingers 7.12502
lthumb 10.7858 20.2545
rfemur -32.5422 2.46206 17.8963
rtibia 37.7515
rfoot 14.7208 -4.02879
rtoes -27.6546
lfemur 14.798 4.19657 -14.9324
ltibia 33.2243
lfoot -21.9712 -16.4821
ltoes -1.56599
179
root -1.34129 16.8213 -3.74085 531.871 43.2688 -175.699
lowerback 21.6715 -4.90054 -3.35287
upperback 18.6142 -3.58686 0.400252
thorax 9.02792 -0.87739 2.98192
lowerneck -17.2511 -13.2287 -22.7322
upperneck -1.83693 -15.5644 37.7432
head 8.42642 -5.71659 15.3632
rclavicle 1.2762e-013 -4.21423e-014
rhumerus -28.8647 12.3782 -86.9815
rradius 28.6558
rwrist 2.62857
rhand -9.64441 4.00156
rfingers 7.12502
rthumb 16.3261 -25.3312
lclavicle 1.2762e-013 -4.21423e-014
lhumerus 9.4049 -23.1382 -275.013
lradius 36.9477
lwrist -351.718
lhand -15.4041 -9.48074
lfingers 7.12502
lthumb 10.775 20.2229
rfemur -32.4947 2.49074 17.7768
rtibia 37.6083
rfoot 14.7002 -3.98971
rtoes -27.769
lfemur 15.1174 4.06502 -14.87
ltibia 32.978
lfoot -21.9845 -16.6349
ltoes -1.64488
180
root -1.25414 16.8101 -3.80608 532.004 43.0921 -175.714
lowerback 21.5007 -4.97203 -3.17565
upperback 18.5957 -3.66565 0.510529
thorax 9.08731 -0.910372 3.00762
lowerneck -17.377 -13.2305 -22.6041
upperneck -1.81171 -15.5572 37.6133
head 8.41741 -5.70193 15.27
rclavicle -2.70347e-014 -3.4191e-014
rhumerus -28.7684 12.4072 -86.8361
rradius 28.7147
rwrist 2.49289
rhand -9.75496 3.89296
rfingers 7.12502
rthumb 16.2196 -25.4485
lclavicle -2.70347e-014 -3.4191e-014
lhumerus 9.21173 -23.1775 -274.706
lradius 36.986
lwrist -351.973
lhand -15.3869 -9.51527
lfingers 7.12502
lthumb 10.7916 20.1875
rfemur -32.4568 2.51498 17.6825
rtibia 37.5285
rfoot 14.6559 -3.9593
rtoes -27.6284
lfemur 15.4715 3.96524 -14.7508
ltibia 32.7194
lfoot -22.0192 -16.8029
ltoes -1.67747
181
root -1.16517 16.7996 -3.87195 532.156 42.9274 -175.732
lowerback 21.3195 -5.04702 -3.01456
upperback 18.5754 -3.75386 0.627653
thorax 9.15315 -0.951255 3.05005
lowerneck -17.5605 -13.2424 -22.4952
upperneck -1.76761 -15.5547 37.4605
head 8.42366 -5.68476 15.1689
rclavicle -6.22196e-014 2.18663e-014
rhumerus -28.6808 12.4693 -86.6806
rradius 28.7992
rwrist 2.36812
rhand -9.84043 3.80287
rfingers 7.12502
rthumb 16.1373 -25.5453
lclavicle -6.22196e-014 2.18663e-014
lhumerus 9.08035 -23.2046 -274.42
lradius 36.9411
lwrist -352.143
lhand -15.4182 -9.59066
lfingers 7.12502
lthumb 10.7614 20.1137
rfemur -32.4657 2.51184 17.5975
rtibia 37.5022
rfoot 14.5719 -3.91991
rtoes -27.5142
lfemur 15.8085 3.87082 -14.6317
ltibia 32.4517
lfoot -22.0431 -16.9698
ltoes -1.9272
182
root -1.07553 16.7876 -3.93766 532.285 42.75 -175.772
lowerback 21.1779 -5.11567 -2.85932
upperback 18.5567 -3.83144 0.742758
thorax 9.20123 -0.985265 3.09382
lowerneck -17.7715 -13.2771 -22.4081
upperneck -1.72441 -15.5803 37.3366
head 8.45148 -5.67721 15.0796
rclavicle -5.46658e-014 2.26615e-014
rhumerus -28.6219 12.5569 -86.5391
rradius 28.9473
rwrist 2.09591
rhand -9.93716 3.7168
rfingers 7.12502
rthumb 16.0442 -25.6389
lclavicle -5.46658e-014 2.26615e-014
lhumerus 8.97663 -23.1968 -274.113
lradius 36.8778
lwrist -352.317
lhand -15.3497 -9.65371
lfingers 7.12502
lthumb 10.8274 20.0472
rfemur -32.5219 2.46479 17.5068
rtibia 37.5988
rfoot 14.4421 -3.82129
rtoes -27.3996
lfemur 16.1248 3.7741 -14.5271
ltibia 32.2519
lfoot -22.0816 -17.147
ltoes -2.13428
183
root -0.985472 16.777 -4.00374 532.438 42.56 -175.787
lowerback 21.0496 -5.19572 -2.65613
upperback 18.5306 -3.91867 0.859464
thorax 9.22899 -1.01851 3.11435
lowerneck -17.9967 -13.3196 -22.3495
upperneck -1.67222 -15.6123 37.2106
head 8.48888 -5.67187 14.9946
rclavicle 7.39479e-014 -4.69132e-014
rhumerus -28.5819 12.5615 -86.3682
rradius 29.1037
rwrist 1.89374
rhand -9.99248 3.67957
rfingers 7.12502
rthumb 15.9909 -25.6804
lclavicle 7.39479e-014 -4.69132e-014
lhumerus 8.86454 -23.242 -273.828
lradius 36.8171
lwrist -352.449
lhand -15.3142 -9.69938
lfingers 7.12502
lthumb 10.8617 19.9997
rfemur -32.6017 2.39104 17.4351
rtibia 37.7478
rfoot 14.2733 -3.73252
rtoes -27.3004
lfemur 16.4312 3.64804 -14.4066
ltibia 32.0522
lfoot -22.0846 -17.3122
ltoes -2.31736
184
root -0.893396 16.7496 -4.06986 532.591 42.3687 -175.77
lowerback 20.9641 -5.28496 -2.44117
upperback 18.5132 -4.01169 0.979548
thorax 9.24573 -1.05143 3.13473
lowerneck -18.2168 -13.3585 -22.2748
upperneck -1.65248 -15.6336 37.0915
head 8.51164 -5.66228 14.9106
rclavicle 6.75868e-015 -1.80894e-014
rhumerus -28.5725 12.6776 -86.2382
rradius 29.3608
rwrist 1.53809
rhand -10.0226 3.54307
rfingers 7.12502
rthumb 15.9619 -25.8192
lclavicle 6.75868e-015 -1.80894e-014
lhumerus 8.78823 -23.2415 -273.55
lradius 36.7413
lwrist -352.548
lhand -15.2277 -9.72407
lfingers 7.12502
lthumb 10.9451 19.9706
rfemur -32.7405 2.29123 17.4023
rtibia 37.9866
rfoot 14.1002 -3.58952
rtoes -27.2993
lfemur 16.762 3.50077 -14.256
ltibia 31.8794
lfoot -22.0469 -17.5003
ltoes -2.36632
185
root -0.802473 16.7382 -4.136 532.745 42.1804 -175.783
lowerback 20.8869 -5.37298 -2.23336
upperback 18.491 -4.10486 1.09816
thorax 9.25329 -1.08515 3.15771
lowerneck -18.4548 -13.3907 -22.1833
upperneck -1.61037 -15.6488 36.9454
head 8.53567 -5.64848 14.813
rclavicle -7.11649e-014 5.52621e-014
rhumerus -28.5544 12.6886 -86.0609
rradius 29.5986
rwrist 1.20083
rhand -10.0213 3.51357
rfingers 7.12502
rthumb 15.9631 -25.8486
lclavicle -7.11649e-014 5.52621e-014
lhumerus 8.69419 -23.2733 -273.286
lradius 36.6952
lwrist -352.552
lhand -15.1784 -9.75057
lfingers 7.12502
lthumb 10.9926 19.9416
rfemur -32.8644 2.14533 17.36
rtibia 38.245
rfoot 13.8761 -3.41482
rtoes -27.3138
lfemur 17.0682 3.36645 -14.1321
ltibia 31.6693
lfoot -21.9806 -17.658
ltoes -2.58527
186
root -0.71055 16.7269 -4.20235 532.911 42.0037 -175.766
lowerback 20.8425 -5.45806 -1.97873
upperback 18.461 -4.18754 1.21595
thorax 9.22819 -1.10741 3.15422
lowerneck -18.6202 -13.4083 -22.0951
upperneck -1.60913 -15.6445 36.814
head 8.53095 -5.63369 14.7273
rclavicle 4.47266e-015 2.06736e-014
rhumerus -28.6107 12.7885 -85.9173
rradius 29.9457
rwrist 0.747035
rhand -9.98859 3.42109
rfingers 7.12502
rthumb 15.9946 -25.9386
lclavicle 4.47266e-015 2.06736e-014
lhumerus 8.5315 -23.319 -273.036
lradius 36.7013
lwrist -352.566
lhand -15.0953 -9.76617
lfingers 7.12502
lthumb 11.0729 19.9217
rfemur -32.9909 2.03262 17.3384
rtibia 38.5668
rfoot 13.6171 -3.29256
rtoes -27.0484
lfemur 17.3913 3.20754 -13.9968
ltibia 31.4545
lfoot -21.9412 -17.8141
ltoes -2.88913
